<svg xmlns="http://www.w3.org/2000/svg" viewBox="0 0 24 24">
  <circle cx="12" cy="12" r="12" fill="#1DB954"/>
  <path d="M17.35 15.39c-.21.34-.65.45-1 .24-2.31-1.41-5.23-1.72-8.66-.94-.39.09-.78-.16-.87-.55-.09-.39.16-.78.55-.87 3.75-.86 7-.5 9.58 1.08.35.22.45.66.24.99-.01.05-.01.05 0 0zm1.34-2.89c-.27.43-.83.57-1.26.3-2.65-1.63-6.68-2.1-9.8-1.15-.49.15-.99-.12-1.14-.61-.15-.49.12-.99.61-1.14 3.56-1.08 8.01-.56 11.08 1.33.43.27.57.83.3 1.26l.21-.13zm.13-3.11C15.19 7.22 9.07 7.01 5.53 8.1c-.54.16-1.11-.14-1.27-.68-.16-.54.14-1.11.68-1.27 4.07-1.23 10.84-1 14.97 1.45.49.29.64.92.35 1.4-.29.49-.92.64-1.41.35l-.03.04z" fill="#000"/>
</svg>
